<svg xmlns="http://www.w3.org/2000/svg" viewBox="0 0 920 200" role="img">
  <defs>
    <linearGradient id="bg" x1="0%" y1="0%" x2="100%" y2="100%">
      <stop offset="0%" style="stop-color:#0c1222"/>
      <stop offset="50%" style="stop-color:#134e4a"/>
      <stop offset="100%" style="stop-color:#0c1222"/>
    </linearGradient>
    <linearGradient id="accent" x1="0%" y1="0%" x2="100%" y2="0%">
      <stop offset="0%" style="stop-color:#2dd4bf"/>
      <stop offset="100%" style="stop-color:#38bdf8"/>
    </linearGradient>
  </defs>
  <rect width="920" height="200" rx="14" fill="url(#bg)"/>
  <rect x="2" y="2" width="916" height="196" rx="12" fill="none" stroke="url(#accent)" stroke-width="1.2" opacity="0.45"/>
  <g transform="translate(44,48)" fill="none" stroke="#5eead4" stroke-width="2.2" stroke-linecap="round" stroke-linejoin="round">
    <path d="M14 2H6a2 2 0 0 0-2 2v84a2 2 0 0 0 2 2h64a2 2 0 0 0 2-2V28L54 2z"/>
    <path d="M54 2v26h26"/>
    <path d="M28 48l10 10 22-28" stroke="#38bdf8" stroke-width="2.8"/>
  </g>
  <text x="130" y="92" fill="#f8fafc" font-family="system-ui, Segoe UI, sans-serif" font-size="30" font-weight="700">Smart Procurement</text>
  <text x="130" y="124" fill="#94a3b8" font-family="system-ui, Segoe UI, sans-serif" font-size="16" font-weight="500">Vendor Management System</text>
  <text x="130" y="154" fill="#5eead4" font-family="ui-monospace, Consolas, monospace" font-size="12.5" letter-spacing="0.06em">Monorepo · Spring Boot · React · MySQL</text>
  <circle cx="860" cy="100" r="5" fill="#2dd4bf" opacity="0.85">
    <animate attributeName="opacity" values="0.4;1;0.4" dur="3s" repeatCount="indefinite"/>
  </circle>
</svg>
