<svg xmlns="http://www.w3.org/2000/svg" viewBox="0 0 640 360" role="img">
  <defs>
    <linearGradient id="win" x1="0%" y1="0%" x2="0%" y2="100%">
      <stop offset="0%" style="stop-color:#1e293b"/>
      <stop offset="100%" style="stop-color:#0f172a"/>
    </linearGradient>
  </defs>
  <rect width="640" height="360" rx="12" fill="#e2e8f0"/>
  <rect x="8" y="8" width="624" height="344" rx="8" fill="url(#win)" stroke="#334155" stroke-width="1"/>
  <rect x="8" y="8" width="624" height="36" rx="8" fill="#334155"/>
  <circle cx="28" cy="26" r="6" fill="#ef4444"/>
  <circle cx="48" cy="26" r="6" fill="#eab308"/>
  <circle cx="68" cy="26" r="6" fill="#22c55e"/>
  <text x="320" y="30" text-anchor="middle" fill="#94a3b8" font-family="system-ui, sans-serif" font-size="12">localhost:5173 / employee / track-status</text>
  <rect x="24" y="56" width="180" height="280" rx="6" fill="#1e293b" stroke="#475569"/>
  <text x="114" y="82" text-anchor="middle" fill="#94a3b8" font-family="system-ui, sans-serif" font-size="11" font-weight="600">Sidebar</text>
  <rect x="40" y="98" width="148" height="28" rx="4" fill="#0ea5e9" opacity="0.35"/>
  <text x="114" y="116" text-anchor="middle" fill="#bae6fd" font-family="system-ui, sans-serif" font-size="10">Track status</text>
  <rect x="220" y="56" width="396" height="280" rx="6" fill="#0f172a" stroke="#334155"/>
  <text x="418" y="88" text-anchor="middle" fill="#f1f5f9" font-family="system-ui, sans-serif" font-size="14" font-weight="700">Track procurement status</text>
  <rect x="244" y="108" width="348" height="100" rx="4" fill="#1e293b"/>
  <text x="270" y="132" fill="#64748b" font-family="ui-monospace, monospace" font-size="10">Requisition ID | Status</text>
  <line x1="260" y1="148" x2="576" y2="148" stroke="#334155"/>
  <text x="270" y="168" fill="#94a3b8" font-family="ui-monospace, monospace" font-size="10">42            APPROVED</text>
  <rect x="244" y="224" width="348" height="96" rx="4" fill="#1e293b"/>
  <text x="270" y="252" fill="#5eead4" font-family="system-ui, sans-serif" font-size="11" font-weight="600">Approvals / PO / Invoices</text>
  <text x="270" y="278" fill="#64748b" font-family="system-ui, sans-serif" font-size="10">Replace this panel with a screen recording (GIF) if you like.</text>
</svg>
